<?xml version="1.0" encoding="UTF-8"?>
<svg width="752pt" height="752pt" version="1.1" viewBox="0 0 752 752" xmlns="http://www.w3.org/2000/svg">
 <path d="m552.07 236.84h-351.88c-12.762-0.65625-24.285-7.8516-30.484-19.027-6.2031-11.176-6.2031-24.762 0-35.938 6.1992-11.18 17.723-18.371 30.484-19.031h351.88c10.141-0.52344 20.055 3.1406 27.422 10.137 7.3672 6.9922 11.535 16.707 11.535 26.863s-4.168 19.867-11.535 26.863c-7.3672 6.9961-17.281 10.66-27.422 10.133zm37.047 138.72c0-9.8281-3.9023-19.25-10.852-26.199-6.9492-6.9453-16.371-10.852-26.195-10.852h-351.88c-12.762 0.66016-24.285 7.8555-30.484 19.031-6.2031 11.176-6.2031 24.762 0 35.938 6.1992 11.18 17.723 18.371 30.484 19.031h351.88c9.8086 0 19.215-3.8906 26.16-10.816 6.9453-6.9258 10.859-16.324 10.887-26.133zm0 176.51c0-9.8281-3.9023-19.25-10.852-26.199-6.9492-6.9453-16.371-10.852-26.195-10.852h-351.88c-10.145-0.52344-20.059 3.1406-27.422 10.137-7.3672 6.9922-11.535 16.707-11.535 26.863s4.168 19.871 11.535 26.863c7.3633 6.9961 17.277 10.66 27.422 10.137h351.88c9.8086 0 19.215-3.8906 26.16-10.816 6.9453-6.9258 10.859-16.324 10.887-26.133z" fill="#fff"/>
</svg>
