<?xml version="1.0" encoding="UTF-8"?>
<svg width="752pt" height="752pt" version="1.1" viewBox="0 0 752 752" xmlns="http://www.w3.org/2000/svg">
 <g>
  <path d="m316.8 188.54c-76.148 0-138.13 61.961-138.13 138.13s61.98 138.13 138.13 138.13c76.148 0 138.13-61.961 138.13-138.13-0.003906-76.168-61.98-138.13-138.13-138.13zm0 236.79c-54.402 0-98.664-44.262-98.664-98.664 0-54.402 44.262-98.664 98.664-98.664 54.402 0 98.664 44.262 98.664 98.664-0.003906 54.406-44.262 98.664-98.664 98.664z"/>
  <path d="m449.15 421.25-27.902 27.902 104.45 104.44c7.7148 7.6953 20.207 7.6953 27.902 0 7.7148-7.7148 7.7148-20.207 0-27.902z"/>
 </g>
</svg>
